<?xml version="1.0" encoding="UTF-8" standalone="no"?>
<!-- Created with Inkscape (http://www.inkscape.org/) -->

<svg
   width="210mm"
   height="210mm"
   viewBox="0 0 210 210"
   version="1.1"
   id="svg1"
   xml:space="preserve"
   xmlns="http://www.w3.org/2000/svg"
   xmlns:svg="http://www.w3.org/2000/svg"><defs
     id="defs1" /><g
     id="layer1"><g
       id="g17"
       transform="translate(-2.050144,-1.182664)"><path
         style="display:inline;fill:#46c8c8;fill-opacity:1;stroke:#093551;stroke-width:6;stroke-linecap:round;stroke-linejoin:round;stroke-dasharray:none;stroke-opacity:1;paint-order:normal"
         d="M 91.323405,180.26069 V 88.503441 H 65.076059 v 80.911229"
         id="path10" /><path
         style="display:inline;fill:#008080;fill-opacity:1;stroke:#093551;stroke-width:6;stroke-linecap:round;stroke-linejoin:round;stroke-dasharray:none;stroke-opacity:1;paint-order:normal"
         d="M 90.889562,178.95916 V 70.715986 l 15.835178,-7.809127 15.18441,7.592205 V 180.26068"
         id="path11" /><path
         style="display:inline;fill:#008080;fill-opacity:1;stroke:#093551;stroke-width:6;stroke-linecap:round;stroke-linejoin:round;stroke-dasharray:none;stroke-opacity:1;paint-order:normal"
         d="m 53.36237,158.56866 v -39.91331 h 22.99354 v 57.05001"
         id="path9" /><path
         style="display:inline;fill:#46c8c8;fill-opacity:1;stroke:#093551;stroke-width:6;stroke-linecap:round;stroke-linejoin:round;stroke-dasharray:none;stroke-opacity:1;paint-order:normal"
         d="M 121.90915,180.69452 V 98.04793 l 15.83518,-12.798292 14.09981,11.713691 v 70.715981"
         id="path12" /><circle
         style="display:inline;fill:#083553;fill-opacity:1;stroke:none;stroke-width:0;stroke-linecap:round;stroke-linejoin:round;stroke-dasharray:none;stroke-opacity:1;paint-order:normal"
         id="path3-9"
         cx="57.700771"
         cy="49.023968"
         r="14.967494" /><path
         id="path4"
         style="color:#000000;fill:#093551;stroke-linecap:round;stroke-linejoin:round;-inkscape-stroke:none"
         d="m 107.05083,27.152348 c -12.529769,0 -24.375777,2.93616 -34.90743,8.137488 1.390195,1.460667 2.564559,3.127234 3.466972,4.950602 9.520126,-4.541483 20.179103,-7.08794 31.440458,-7.08794 40.3691,0 73.02913,32.660037 73.02913,73.029132 0,40.3691 -32.66003,73.0312 -73.02913,73.0312 -40.369098,0 -73.031201,-32.6621 -73.031201,-73.0312 0,-15.087326 4.564718,-29.095948 12.386324,-40.727227 -1.662463,-1.149663 -3.142401,-2.544757 -4.390946,-4.130498 -8.816429,12.749367 -13.995529,28.201086 -13.995529,44.857725 0,43.61174 35.419621,79.03135 79.031352,79.03135 43.61174,0 79.02928,-35.41961 79.02928,-79.03135 0,-43.61173 -35.41754,-79.029282 -79.02928,-79.029282 z" /><path
         id="path4-9"
         style="display:inline;fill:#0f960f;fill-opacity:1;stroke:#093551;stroke-width:6;stroke-linecap:round;stroke-linejoin:round;stroke-dasharray:none;stroke-opacity:1;paint-order:normal"
         d="m 182.66585,98.337667 c 0.27342,2.606103 0.41196,5.224603 0.41496,7.845003 -0.004,41.94894 -33.98238,75.96846 -75.93128,76.02326 0,0 -8.981967,-42.37 19.31495,-56.82605 19.95665,-10.19526 27.37002,-3.97585 56.20137,-27.042213 z" /><path
         style="display:inline;fill:#0a3651;fill-opacity:1;stroke:none;stroke-width:6.00001;stroke-linecap:round;stroke-linejoin:round;stroke-dasharray:none;stroke-opacity:1;paint-order:normal"
         d="m 159.43634,131.23672 c 0,0 -15.83516,-0.21692 -33.4057,14.75057 -22.03097,18.76711 -19.3059,37.31028 -19.3059,37.31028 l 5.20608,-0.21692 c 0,0 -3.62282,-10.72874 16.70286,-31.67035 14.31673,-14.75058 30.80266,-20.17358 30.80266,-20.17358 z"
         id="path8" /><path
         style="fill:#00ffff;fill-opacity:1;stroke:#093551;stroke-width:6.00001;stroke-linecap:round;stroke-linejoin:round;stroke-dasharray:none;stroke-opacity:1;paint-order:normal"
         d="M 65.076059,134.92436 V 129.9352"
         id="path13" /><path
         style="fill:#00ffff;fill-opacity:1;stroke:#093551;stroke-width:6.00001;stroke-linecap:round;stroke-linejoin:round;stroke-dasharray:none;stroke-opacity:1;paint-order:normal"
         d="m 73.495892,106.94333 v -4.98916"
         id="path13-7" /><path
         style="fill:#00ffff;fill-opacity:1;stroke:#093551;stroke-width:6.00001;stroke-linecap:round;stroke-linejoin:round;stroke-dasharray:none;stroke-opacity:1;paint-order:normal"
         d="m 81.781653,106.94333 v -4.98916"
         id="path13-7-7" /><path
         style="fill:#00ffff;fill-opacity:1;stroke:#093551;stroke-width:6.00001;stroke-linecap:round;stroke-linejoin:round;stroke-dasharray:none;stroke-opacity:1;paint-order:normal"
         d="m 102.3628,85.415698 v -4.98916"
         id="path13-7-0" /><path
         style="fill:#00ffff;fill-opacity:1;stroke:#093551;stroke-width:6.00001;stroke-linecap:round;stroke-linejoin:round;stroke-dasharray:none;stroke-opacity:1;paint-order:normal"
         d="m 110.64856,85.415698 v -4.98916"
         id="path13-7-7-5" /><path
         style="fill:#00ffff;fill-opacity:1;stroke:#093551;stroke-width:6.00001;stroke-linecap:round;stroke-linejoin:round;stroke-dasharray:none;stroke-opacity:1;paint-order:normal"
         d="M 102.40454,101.51651 V 96.527352"
         id="path13-7-0-8" /><path
         style="fill:#00ffff;fill-opacity:1;stroke:#093551;stroke-width:6.00001;stroke-linecap:round;stroke-linejoin:round;stroke-dasharray:none;stroke-opacity:1;paint-order:normal"
         d="M 110.6903,101.51651 V 96.527352"
         id="path13-7-7-5-3" /><path
         style="fill:#00ffff;fill-opacity:1;stroke:#093551;stroke-width:6.00001;stroke-linecap:round;stroke-linejoin:round;stroke-dasharray:none;stroke-opacity:1;paint-order:normal"
         d="m 102.51448,117.31271 v -4.98916"
         id="path13-7-0-8-3" /><path
         style="fill:#00ffff;fill-opacity:1;stroke:#093551;stroke-width:6.00001;stroke-linecap:round;stroke-linejoin:round;stroke-dasharray:none;stroke-opacity:1;paint-order:normal"
         d="m 110.80023,117.31271 v -4.98916"
         id="path13-7-7-5-3-7" /><path
         style="fill:#00ffff;fill-opacity:1;stroke:#093551;stroke-width:6.00001;stroke-linecap:round;stroke-linejoin:round;stroke-dasharray:none;stroke-opacity:1;paint-order:normal"
         d="m 132.42997,108.18554 v -4.98916"
         id="path13-7-0-8-2" /><path
         style="fill:#00ffff;fill-opacity:1;stroke:#093551;stroke-width:6.00001;stroke-linecap:round;stroke-linejoin:round;stroke-dasharray:none;stroke-opacity:1;paint-order:normal"
         d="m 140.71573,108.18554 v -4.98916"
         id="path13-7-7-5-3-1" /></g></g></svg>
